<svg xmlns="http://www.w3.org/2000/svg" version="1.1" xmlns:xlink="http://www.w3.org/1999/xlink" xmlns:svgjs="http://svgjs.com/svgjs" width="1000" height="1000"><rect width="1000" height="1000" rx="350" ry="350" fill="#cfc9be"></rect><g transform="matrix(1,0,0,1,0,0)"><svg xmlns="http://www.w3.org/2000/svg" version="1.1" xmlns:xlink="http://www.w3.org/1999/xlink" xmlns:svgjs="http://svgjs.com/svgjs" width="500.000000pt" height="500.000000pt"><svg version="1.0" xmlns="http://www.w3.org/2000/svg" width="500.000000pt" height="500.000000pt" viewBox="0 0 500.000000 500.000000" preserveAspectRatio="xMidYMid meet">

<g transform="translate(0.000000,500.000000) scale(0.100000,-0.100000)" fill="#000000" stroke="none">
<path d="M2021 4320 c-12 -48 -44 -100 -61 -100 -4 0 -12 12 -18 28 -5 15 -19
38 -30 52 l-21 25 -48 -52 c-56 -62 -89 -77 -198 -92 -345 -48 -515 -195 -581
-506 -9 -38 -11 -40 -64 -50 -90 -18 -142 -66 -174 -158 -35 -105 -11 -211 69
-292 62 -64 127 -84 207 -64 l47 13 40 -45 c22 -24 40 -47 41 -51 0 -3 -21
-20 -47 -37 -167 -107 -292 -241 -372 -399 -123 -244 -153 -408 -149 -810 3
-300 -1 -329 -62 -410 -21 -27 -89 -86 -166 -142 -206 -150 -269 -213 -325
-326 -21 -44 -24 -62 -24 -179 0 -130 0 -130 37 -206 99 -203 357 -329 672
-329 165 0 247 17 372 76 140 67 215 176 201 295 -7 59 -41 124 -78 152 -33
23 -105 38 -135 27 -30 -12 -36 -34 -34 -127 1 -96 -10 -121 -74 -157 -62 -36
-137 -49 -261 -43 -134 6 -176 15 -259 56 -79 39 -130 89 -164 161 -69 147
-23 266 146 376 151 99 163 107 185 131 29 30 44 29 92 -8 92 -69 206 -76 332
-18 54 24 55 24 84 -7 55 -59 83 -65 333 -74 159 -6 270 -15 356 -30 71 -12
140 -19 160 -15 19 3 52 8 73 11 23 4 49 18 67 35 22 23 38 29 69 29 47 0 81
27 81 63 0 32 -49 107 -91 138 -19 14 -64 40 -101 58 -38 18 -68 36 -68 40 0
5 12 17 27 26 36 24 110 101 153 160 l34 47 241 -8 c296 -11 953 -9 1173 4
153 8 165 10 186 33 22 23 30 48 86 294 5 22 19 90 30 150 12 61 26 130 32
155 14 63 47 270 59 365 5 44 11 90 14 103 4 17 -3 31 -24 53 l-30 30 -470 -3
-471 -3 -25 -25 c-26 -27 -44 -85 -65 -220 -7 -41 -18 -111 -26 -155 -8 -44
-19 -107 -25 -140 -5 -33 -14 -82 -19 -110 -5 -27 -14 -79 -20 -115 -6 -36
-19 -110 -29 -165 l-18 -100 -199 3 c-109 2 -233 6 -274 10 -67 6 -75 9 -73
27 6 46 5 114 -1 171 l-8 61 31 11 c17 6 31 16 31 21 0 21 32 10 57 -19 46
-56 119 -30 130 45 6 50 -22 134 -77 225 -22 36 -40 69 -40 73 0 16 56 41 108
48 31 4 68 17 85 30 l30 22 17 -24 c10 -13 24 -40 31 -61 17 -53 44 -78 83
-78 60 0 65 17 65 190 -1 105 -5 163 -14 180 -17 32 -116 129 -152 149 -18 10
-55 16 -104 16 -100 0 -134 -18 -274 -146 -224 -206 -331 -243 -425 -149 -44
44 -60 90 -60 171 0 76 23 106 88 114 227 27 373 116 449 275 23 46 27 70 28
147 1 65 6 98 17 110 40 48 48 73 48 147 0 119 -56 218 -147 257 -32 14 -44
25 -48 46 -23 119 -61 201 -113 245 -26 22 -27 26 -24 99 3 62 0 83 -18 122
-22 47 -71 97 -94 97 -7 0 -18 -22 -25 -50z m207 -494 c32 -31 46 -132 39
-273 l-6 -112 39 -31 c63 -50 84 -93 84 -171 -1 -39 -7 -78 -16 -95 -9 -16
-22 -42 -29 -59 -23 -49 -110 -126 -175 -156 -34 -16 -106 -37 -160 -48 -189
-37 -471 -3 -546 67 -75 69 -73 224 3 308 19 21 19 22 -23 105 -38 75 -43 93
-46 165 -5 95 13 146 71 211 110 121 277 118 408 -9 21 -21 45 -38 53 -38 7 0
21 16 31 36 23 49 84 108 125 121 49 16 120 6 148 -21z m157 -153 c61 -67 80
-196 38 -262 l-15 -23 -43 42 -43 42 0 119 c-1 136 6 145 63 82z m-1345 -218
c44 -28 51 -36 89 -111 47 -93 39 -161 -23 -190 -80 -38 -183 16 -232 121 -45
95 -22 184 53 202 45 11 66 7 113 -22z m1660 -682 c35 -14 110 -84 110 -102 0
-5 7 -11 15 -15 8 -3 15 -13 15 -23 -1 -17 -1 -17 -15 0 -9 13 -20 17 -35 12
-27 -8 -22 -37 15 -91 31 -46 47 -103 43 -157 -2 -35 -7 -43 -26 -45 -14 -2
-24 3 -28 15 -4 10 -23 54 -44 98 -41 90 -95 147 -158 166 -33 10 -43 9 -66
-6 -46 -30 -29 -85 26 -85 37 0 88 -26 88 -45 0 -19 -31 -35 -67 -35 -16 0
-53 -11 -82 -26 -50 -23 -54 -24 -71 -9 -10 9 -16 23 -13 31 3 8 -7 21 -27 31
-26 15 -30 23 -27 48 3 18 -1 37 -11 48 -14 16 -13 21 24 59 59 63 93 91 137
115 22 12 45 27 51 33 13 14 96 4 146 -17z m455 -100 c-3 -32 -11 -74 -16 -93
-5 -19 -20 -98 -34 -175 -14 -77 -30 -159 -36 -182 -5 -23 -9 -54 -9 -69 0
-15 -4 -41 -10 -58 -9 -29 -43 -222 -62 -351 -10 -73 -21 -85 -43 -52 -15 24
-15 32 -1 104 9 43 22 119 31 168 25 155 112 659 121 703 5 25 38 62 55 62 8
0 9 -18 4 -57z m909 37 c15 -15 -11 -216 -50 -386 -8 -33 -14 -72 -14 -87 0
-14 -4 -36 -9 -49 -5 -13 -19 -77 -31 -143 -11 -66 -27 -145 -35 -175 -8 -30
-19 -79 -25 -108 -5 -29 -16 -67 -24 -86 -12 -30 -18 -34 -67 -39 -30 -4 -220
-10 -423 -13 l-368 -7 6 61 c3 33 8 67 11 74 2 7 18 92 34 188 26 148 76 423
113 615 5 28 12 72 16 100 5 36 13 52 28 60 27 13 824 9 838 -5z m-1716 -300
c130 -94 261 -392 161 -367 -18 5 -35 28 -64 87 -47 96 -89 150 -116 150 -24
0 -24 -14 -1 -48 47 -69 57 -164 17 -170 -15 -2 -28 10 -49 43 -42 66 -61 58
-61 -25 0 -63 -1 -65 -27 -68 -24 -3 -30 3 -53 47 l-25 51 -42 -6 -41 -7 6 34
c3 26 0 40 -16 57 -20 22 -20 23 -3 52 9 17 14 35 11 40 -8 14 98 124 138 144
53 26 117 21 165 -14z m507 -725 c46 -9 75 -30 75 -55 0 -16 -16 -17 -202 -14
-358 7 -467 14 -484 31 -18 19 -14 35 12 48 23 11 532 3 599 -10z m-714 -417
c66 -34 92 -54 121 -92 20 -28 35 -53 32 -58 -3 -4 -25 -8 -49 -8 -38 0 -46 4
-59 28 -20 39 -107 106 -171 133 -62 26 -62 39 -1 39 31 0 67 -12 127 -42z
m-554 21 c8 -8 20 -9 42 -1 35 12 124 2 250 -29 151 -38 271 -123 271 -194 0
-23 -47 -19 -60 5 -30 57 -242 137 -264 101 -13 -21 8 -37 69 -53 65 -18 145
-60 145 -78 0 -15 -98 -12 -165 6 -42 11 -135 18 -310 22 -249 7 -250 7 -296
34 -26 15 -49 34 -52 42 -9 23 26 60 101 105 73 44 102 50 122 26 17 -20 37
-19 67 5 28 22 63 26 80 9z"></path>
<path d="M2086 3614 c-34 -33 -33 -114 2 -140 44 -34 112 4 112 63 0 72 -71
120 -114 77z"></path>
<path d="M1640 3592 c-38 -12 -60 -45 -60 -92 0 -59 24 -85 82 -85 48 0 77 32
78 83 0 57 -54 109 -100 94z"></path>
<path d="M2002 3352 c-11 -15 -32 -34 -46 -41 -24 -13 -30 -12 -76 17 -57 35
-80 40 -80 17 0 -9 27 -32 59 -53 65 -40 71 -53 71 -144 0 -58 -8 -63 -85 -53
-72 9 -119 40 -123 83 -3 34 -11 39 -30 20 -35 -35 11 -107 85 -132 26 -9 79
-16 120 -16 158 0 291 86 269 175 -10 39 -33 31 -41 -14 -3 -22 -14 -46 -24
-55 -22 -20 -111 -59 -118 -52 -3 3 -8 39 -11 81 l-5 75 42 40 c41 40 54 80
27 80 -8 0 -24 -13 -34 -28z"></path>
<path d="M3512 2330 c-157 -38 -162 -352 -6 -365 83 -7 148 60 163 168 19 135
-51 223 -157 197z m62 -51 c29 -14 46 -55 46 -115 0 -50 -10 -79 -42 -116 -37
-43 -72 -46 -109 -9 -30 30 -31 34 -27 101 3 60 7 73 33 101 24 25 47 41 72
48 1 1 13 -4 27 -10z"></path>
<path d="M3145 3517 l-26 -22 48 -95 c26 -52 53 -94 58 -92 6 2 9 20 7 42 -3
32 0 39 18 45 23 7 40 42 40 81 0 61 -92 87 -145 41z m99 -26 c14 -15 15 -24
6 -40 -15 -28 -46 -26 -66 4 -13 20 -14 28 -4 40 17 21 43 19 64 -4z"></path>
<path d="M2985 3420 c-9 -14 -7 -157 3 -199 11 -51 30 -50 34 0 3 36 8 46 36
62 30 18 34 18 57 3 30 -20 45 -20 45 -2 0 17 -139 146 -157 146 -6 0 -15 -5
-18 -10z m62 -76 c7 -18 -11 -39 -25 -30 -12 7 -4 46 9 46 6 0 12 -7 16 -16z"></path>
<path d="M2818 3326 c-64 -44 -88 -66 -88 -83 0 -19 18 -16 48 8 l27 21 27
-33 c15 -18 34 -47 43 -66 10 -21 23 -33 35 -33 28 0 26 8 -20 79 -22 34 -40
67 -40 74 0 7 14 21 30 30 17 10 30 22 30 28 0 19 -47 7 -92 -25z"></path>
<path d="M3600 3211 c-28 -8 -30 -21 -11 -134 18 -109 45 -138 53 -57 2 26 8
36 23 38 58 11 88 98 46 136 -22 20 -75 28 -111 17z m88 -43 c19 -19 14 -46
-13 -64 -37 -24 -55 -12 -55 36 0 37 2 40 28 40 15 0 33 -5 40 -12z"></path>
<path d="M3408 3138 c-23 -50 -52 -172 -45 -191 10 -28 24 -19 31 18 12 61 80
76 116 25 23 -33 40 -39 40 -15 0 35 -94 195 -114 195 -7 0 -19 -15 -28 -32z
m49 -72 c-4 -9 -13 -13 -22 -10 -18 7 -20 31 -2 37 17 6 31 -9 24 -27z"></path>
<path d="M3275 3123 c-16 -2 -56 -11 -88 -20 -42 -12 -57 -21 -55 -32 2 -10
11 -14 23 -12 56 11 59 9 73 -59 8 -36 17 -72 22 -80 13 -26 25 -6 21 35 -2
22 -4 60 -5 85 -1 42 0 44 32 51 18 4 36 10 40 13 6 7 -18 27 -28 24 -3 0 -18
-3 -35 -5z"></path>
</g>
</svg></svg></g></svg>